<svg xmlns="http://www.w3.org/2000/svg" version="1.1" xmlns:xlink="http://www.w3.org/1999/xlink" xmlns:svgjs="http://svgjs.dev/svgjs" viewBox="0 0 800 800"><defs><linearGradient x1="50%" y1="0%" x2="50%" y2="100%" id="nnneon-grad"><stop stop-color="hsl(206, 75%, 49%)" stop-opacity="1" offset="0%"></stop><stop stop-color="hsl(331, 90%, 56%)" stop-opacity="1" offset="100%"></stop></linearGradient><filter id="nnneon-filter" x="-100%" y="-100%" width="400%" height="400%" filterUnits="objectBoundingBox" primitiveUnits="userSpaceOnUse" color-interpolation-filters="sRGB">
	<feGaussianBlur stdDeviation="17 8" x="0%" y="0%" width="100%" height="100%" in="SourceGraphic" edgeMode="none" result="blur"></feGaussianBlur></filter><filter id="nnneon-filter2" x="-100%" y="-100%" width="400%" height="400%" filterUnits="objectBoundingBox" primitiveUnits="userSpaceOnUse" color-interpolation-filters="sRGB">
	<feGaussianBlur stdDeviation="29 28" x="0%" y="0%" width="100%" height="100%" in="SourceGraphic" edgeMode="none" result="blur"></feGaussianBlur></filter></defs><g stroke-width="30.5" stroke="url(#nnneon-grad)" fill="none"><path d="M380.94748294145546 125.21105488270007C392.73718993942146 118.40549033894851 407.26284057815667 118.40549033894851 419.0525475761226 125.21296013593178L628.4474987565458 246.1069934491086C640.2372057545117 252.91255799286017 647.5000310738794 265.4929450819956 647.5000310738794 279.10597942273046V520.8940460490841C647.5000310738794 534.507080389819 640.2372057545117 547.0874674789543 628.4474987565458 553.8949372759375L419.0525475761226 674.7889705891145C407.26284057815667 681.594535132866 392.73718993942146 681.594535132866 380.94748294145546 674.7870653358827L171.55253176103236 553.8930320227059C159.76282476306636 547.0874674789543 152.49999944369875 534.507080389819 152.49999944369875 520.8940460490841V279.10597942273046C152.49999944369875 265.4929450819956 159.76282476306636 252.91255799286017 171.55253176103236 246.10508819587687L380.94748294145546 125.21105488270007Z " filter="url(#nnneon-filter)"></path><path d="M410.94748294145546 125.21105488270007C422.73718993942146 118.40549033894851 437.26284057815667 118.40549033894851 449.0525475761226 125.21296013593178L658.4474987565458 246.1069934491086C670.2372057545117 252.91255799286017 677.5000310738794 265.4929450819956 677.5000310738794 279.10597942273046V520.8940460490841C677.5000310738794 534.507080389819 670.2372057545117 547.0874674789543 658.4474987565458 553.8949372759375L449.0525475761226 674.7889705891145C437.26284057815667 681.594535132866 422.73718993942146 681.594535132866 410.94748294145546 674.7870653358827L201.55253176103236 553.8930320227059C189.76282476306636 547.0874674789543 182.49999944369875 534.507080389819 182.49999944369875 520.8940460490841V279.10597942273046C182.49999944369875 265.4929450819956 189.76282476306636 252.91255799286017 201.55253176103236 246.10508819587687L410.94748294145546 125.21105488270007Z " filter="url(#nnneon-filter2)" opacity="0.25"></path><path d="M350.94748294145546 125.21105488270007C362.73718993942146 118.40549033894851 377.26284057815667 118.40549033894851 389.0525475761226 125.21296013593178L598.4474987565458 246.1069934491086C610.2372057545117 252.91255799286017 617.5000310738794 265.4929450819956 617.5000310738794 279.10597942273046V520.8940460490841C617.5000310738794 534.507080389819 610.2372057545117 547.0874674789543 598.4474987565458 553.8949372759375L389.0525475761226 674.7889705891145C377.26284057815667 681.594535132866 362.73718993942146 681.594535132866 350.94748294145546 674.7870653358827L141.55253176103236 553.8930320227059C129.76282476306636 547.0874674789543 122.49999944369875 534.507080389819 122.49999944369875 520.8940460490841V279.10597942273046C122.49999944369875 265.4929450819956 129.76282476306636 252.91255799286017 141.55253176103236 246.10508819587687L350.94748294145546 125.21105488270007Z " filter="url(#nnneon-filter2)" opacity="0.25"></path><path d="M380.94748294145546 125.21105488270007C392.73718993942146 118.40549033894851 407.26284057815667 118.40549033894851 419.0525475761226 125.21296013593178L628.4474987565458 246.1069934491086C640.2372057545117 252.91255799286017 647.5000310738794 265.4929450819956 647.5000310738794 279.10597942273046V520.8940460490841C647.5000310738794 534.507080389819 640.2372057545117 547.0874674789543 628.4474987565458 553.8949372759375L419.0525475761226 674.7889705891145C407.26284057815667 681.594535132866 392.73718993942146 681.594535132866 380.94748294145546 674.7870653358827L171.55253176103236 553.8930320227059C159.76282476306636 547.0874674789543 152.49999944369875 534.507080389819 152.49999944369875 520.8940460490841V279.10597942273046C152.49999944369875 265.4929450819956 159.76282476306636 252.91255799286017 171.55253176103236 246.10508819587687L380.94748294145546 125.21105488270007Z "></path></g></svg>